<svg xmlns="http://www.w3.org/2000/svg" width="24" height="24" viewBox="0 0 24 24">
  <g id="app_icon" data-name="app icon" transform="translate(-1826 -317)">
    <rect id="Rectangle_5422" data-name="Rectangle 5422" width="24" height="24" transform="translate(1826 317)" fill="none"/>
    <path id="Path_152831" data-name="Path 152831" d="M7.083,1.229H2.224A1.618,1.618,0,0,0,.608,2.845V7.7A1.618,1.618,0,0,0,2.224,9.319H7.083A1.618,1.618,0,0,0,8.7,7.7V2.845A1.618,1.618,0,0,0,7.083,1.229m0,9.709H2.224A1.618,1.618,0,0,0,.608,12.553v4.859a1.618,1.618,0,0,0,1.616,1.616H7.083A1.618,1.618,0,0,0,8.7,17.412V12.553a1.618,1.618,0,0,0-1.616-1.616m9.708,0H11.932a1.618,1.618,0,0,0-1.616,1.616v4.859a1.618,1.618,0,0,0,1.616,1.616h4.859a1.618,1.618,0,0,0,1.616-1.616V12.553a1.618,1.618,0,0,0-1.616-1.616" transform="translate(1828.24 319.72)" fill="#6964e2"/>
    <path id="Path_152832" data-name="Path 152832" d="M19.07,3.751,15.883.566a1.5,1.5,0,0,0-2.119,0l-.44.441L10.578,3.752a1.5,1.5,0,0,0,0,2.119l.441.441,2.3,2.306.441.441a1.5,1.5,0,0,0,2.119,0l2.745-2.746.441-.44a1.5,1.5,0,0,0,0-2.119" transform="translate(1827.859 319.72)" fill="#06064d"/>
  </g>
</svg>
